<svg xmlns="http://www.w3.org/2000/svg" viewBox="0 0 164.3 22.9"><path d="M37.9,6.5V21.6H33.7l-.2-1.5a5.3,5.3,0,0,1-4.3,1.6c-4,0-5.4-2.8-5.4-5.6V6.5h4.5v8.7c0,1.6.4,2.9,2.2,2.9s2.9-1,2.9-3.3V6.5Z" style="fill:#ffffff"/><path d="M40,14a7.9,7.9,0,0,1,15.8,0A7.9,7.9,0,0,1,40,14Zm11.2-.1a3.4,3.4,0,1,0-6.7,0c0,2.5,1.5,4,3.4,4S51.2,16.4,51.2,13.9Z" style="fill:#ffffff"/><path d="M57,14c-.1-4.7,3.2-7.6,7.7-7.6a7.4,7.4,0,0,1,6,2.8l-2.9,2.6a3.8,3.8,0,0,0-3.1-1.7c-1.7,0-3.4,1.3-3.3,3.9s1.4,3.9,3.2,3.9a3.7,3.7,0,0,0,3.3-1.8L71,18.7a7.6,7.6,0,0,1-6.4,3C60.1,21.7,57,18.7,57,14Z" style="fill:#ffffff"/><path d="M72,14c0-4.7,3.3-7.6,7.8-7.6a7.4,7.4,0,0,1,6,2.8l-2.9,2.6a3.8,3.8,0,0,0-3.1-1.7c-1.7,0-3.4,1.3-3.4,3.9s1.5,3.9,3.3,3.9A3.7,3.7,0,0,0,83,16.1l3.1,2.6a7.7,7.7,0,0,1-6.4,3C75.2,21.7,72.1,18.7,72,14Z" style="fill:#ffffff"/><path d="M86.7,17.4c0-3.3,2.7-4.9,6.5-4.9a13,13,0,0,1,2.9.1V12c0-1.2-.8-2-2.6-2a9.7,9.7,0,0,0-4.7,1.5L87.2,8.3a12.2,12.2,0,0,1,6.9-1.9c4.8,0,6.5,2.9,6.5,5.7v9.5H96.4l-.2-1.8a4.8,4.8,0,0,1-4,1.9C89.3,21.9,86.7,20.6,86.7,17.4Zm9.4-1.1v-.6a10.6,10.6,0,0,0-2.6-.2c-1.6.1-2.6.7-2.5,1.9s.7,1.4,2.3,1.2A3.4,3.4,0,0,0,96.1,16.3Z" style="fill:#ffffff"/><path d="M120.8,15.5a5.9,5.9,0,0,1-6.1,6.1H104.5V.5h9.2c3.7,0,6.5,1.9,6.4,5.8a5.2,5.2,0,0,1-2.7,4.4A4.9,4.9,0,0,1,120.8,15.5ZM107.2,3.2V9.6h6.4c1.9,0,3.4-1,3.5-3.1s-1.5-3.3-3.4-3.3Zm10.7,12.3c0-2.2-1.8-3.2-4.2-3.2h-6.5v6.6h7C116.7,18.9,117.9,17.4,117.9,15.5Z" style="fill:#ffffff"/><path d="M121.2,17.4c0-3.3,2.9-4.5,6.5-4.6a20.7,20.7,0,0,1,3.9.2V11.9c0-1.5-.7-2.9-3.6-2.9a10.2,10.2,0,0,0-5,1.5l-1.1-2.4a12.3,12.3,0,0,1,6.5-1.7c4.4,0,6,2.9,6,5.7v9.5h-2.6l-.2-2.5a5.6,5.6,0,0,1-5,2.6C123.7,21.7,121.2,20.6,121.2,17.4Zm10.4-1.7v-.5a24.9,24.9,0,0,0-4-.2c-2.4.1-3.8.8-3.6,2.6s1,1.8,3.3,1.5S131.6,17.6,131.6,15.7Z" style="fill:#ffffff"/><path d="M149.2,12.1v9.5h-2.7V12.1c0-1.8-.7-3.2-3.1-3.2s-4.3,1.3-4.3,3.6v9.1h-2.8V6.5h2.5l.2,1.9a6.1,6.1,0,0,1,4.8-2C147.7,6.4,149.2,9.3,149.2,12.1Z" style="fill:#ffffff"/><path d="M156.5,14.8l-2.6,2.9v3.9h-2.7V0h2.7V13.9l6.4-7.4h3.6l-5.5,6.2,5.9,8.9h-3.4Z" style="fill:#ffffff"/><path d="M19.7,17.4A10.9,10.9,0,0,0,21.8,11,10.7,10.7,0,0,0,10.9.4a10.7,10.7,0,1,0,0,21.3,11.6,11.6,0,0,0,5.9-1.6l2.7,2.8,2.9-2.7Zm-7.5-12a4.7,4.7,0,0,1,.7-1.2,2.8,2.8,0,0,1,1.2-.8.9.9,0,0,1,1.1.1,1.1,1.1,0,0,1,.6.7A2.7,2.7,0,0,1,16,5.5a5,5,0,0,1-.9,2.3,3.2,3.2,0,0,1-1,1,1.2,1.2,0,0,1-.9.3,1.1,1.1,0,0,1-1-.6,1.9,1.9,0,0,1-.4-.9V7.2A4.8,4.8,0,0,1,12.2,5.4ZM7.4,4.5a2.6,2.6,0,0,1,.5-1.2,1.5,1.5,0,0,1,.9-.6h.3l.5.2a1.6,1.6,0,0,1,.7.7,3.5,3.5,0,0,1,.6,1.6,3.8,3.8,0,0,1,.1,1A6.1,6.1,0,0,1,10.5,8l-.6.6a1.2,1.2,0,0,1-1.5-.1,2.7,2.7,0,0,1-.7-.8,4.2,4.2,0,0,1-.4-1.5A3.2,3.2,0,0,1,7.4,4.5ZM3.2,9.1,2.9,7.9h0V7.2c0-.2.1-.3.1-.5l.4-.8a1.2,1.2,0,0,1,1.3-.4l.9.5A5.8,5.8,0,0,1,6.9,8.3c0,.3.1.6.1,1a2.3,2.3,0,0,1-.4,1.4c-.2.4-.4.6-.8.6a1.1,1.1,0,0,1-.8-.1,1.5,1.5,0,0,1-.9-.6A3.8,3.8,0,0,1,3.2,9.1Zm11.7,9-1.2.4H12.4l-1.7-.3-1.3-.2H7.7a4.7,4.7,0,0,1-2-.6,2.6,2.6,0,0,1-1.2-1.8v-.4c0-.3.1-.5.1-.8a2.8,2.8,0,0,1,1.6-1.7l.4-.2.7-.4,1.1-1,.8-1a2.6,2.6,0,0,1,1.3-.8,1.4,1.4,0,0,1,1.1.2,4.5,4.5,0,0,1,1,.9A17.5,17.5,0,0,0,14.2,13c.3.4,1.3,1.3,1.3,1.5a3.8,3.8,0,0,1,.6,1.3A2.2,2.2,0,0,1,14.9,18.1Zm4.2-7.8A3.6,3.6,0,0,1,18,11.9a2.6,2.6,0,0,1-1.3.8.9.9,0,0,1-.9-.1,1,1,0,0,1-.7-.7,3.1,3.1,0,0,1-.1-1,5,5,0,0,1,1.1-2.6,3.4,3.4,0,0,1,1.2-.9,1.3,1.3,0,0,1,.9-.2,1.1,1.1,0,0,1,1.1.7,2,2,0,0,1,.2.9A4.2,4.2,0,0,1,19.1,10.3Z" style="fill:#ffffff"/></svg>
